<svg width="650" height="360" viewBox="0 0 650 360" fill="none" xmlns="http://www.w3.org/2000/svg">
  <defs>
    <linearGradient id="frame" x1="19" x2="610" y1="32" y2="332" gradientUnits="userSpaceOnUse">
      <stop stop-color="#13263f"/><stop offset=".45" stop-color="#071421"/><stop offset="1" stop-color="#02070e"/>
    </linearGradient>
    <radialGradient id="space" cx="0" cy="0" r="1" gradientUnits="userSpaceOnUse" gradientTransform="translate(265 124) scale(270 135)">
      <stop stop-color="#0b6dd4"/><stop offset=".38" stop-color="#06214b"/><stop offset="1" stop-color="#010712"/>
    </radialGradient>
    <linearGradient id="earth" x1="116" x2="540" y1="244" y2="244" gradientUnits="userSpaceOnUse">
      <stop stop-color="#064985"/><stop offset=".45" stop-color="#2aa7df"/><stop offset="1" stop-color="#061a36"/>
    </linearGradient>
  </defs>
  <rect width="650" height="360" fill="#02070e"/>
  <path d="M22 84 98 24h460l68 67v180l-89 63H102l-80-71V84Z" fill="url(#frame)" stroke="#25476b" stroke-width="2"/>
  <path d="M79 97 129 57h379l53 45v126l-62 48H136l-57-48V97Z" fill="#010710" stroke="#4a7ca8" stroke-width="3"/>
  <clipPath id="window">
    <path d="M95 105 139 72h359l46 38v108l-53 42H146l-51-43V105Z"/>
  </clipPath>
  <g clip-path="url(#window)">
    <rect x="87" y="60" width="470" height="210" fill="url(#space)"/>
    <circle cx="185" cy="92" r="2" fill="#fff"/><circle cx="271" cy="86" r="1.5" fill="#fff"/><circle cx="421" cy="113" r="1.6" fill="#fff"/><circle cx="512" cy="84" r="1.7" fill="#fff"/>
    <path d="M43 282c112-100 387-125 572-37v98H43v-61Z" fill="url(#earth)"/>
    <path d="M49 263c130-83 379-109 569-34" stroke="#8feeff" stroke-width="5" stroke-opacity=".8"/>
    <path d="M90 279c97-45 179-50 266-34 83 16 141-9 214-25" stroke="#fff" stroke-opacity=".18" stroke-width="2"/>
    <g fill="#ffc876" opacity=".85"><circle cx="312" cy="277" r="2"/><circle cx="340" cy="286" r="1.5"/><circle cx="372" cy="271" r="1.8"/><circle cx="438" cy="284" r="2"/></g>
  </g>
  <path d="M28 313h575M50 329h504" stroke="#102337" stroke-width="2"/>
  <path d="M53 86 105 45M594 91l-49-45M72 258l58 50M573 251l-72 57" stroke="#587a9a" stroke-opacity=".35"/>
</svg>
