<svg width="1440" height="2560" viewBox="0 0 1440 2560" fill="none" xmlns="http://www.w3.org/2000/svg">
  <defs>
    <radialGradient id="deepBlue" cx="0" cy="0" r="1" gradientUnits="userSpaceOnUse" gradientTransform="translate(720 1160) rotate(90) scale(1180 610)">
      <stop stop-color="#08234a" stop-opacity=".82"/>
      <stop offset=".52" stop-color="#031022" stop-opacity=".58"/>
      <stop offset="1" stop-color="#01040a" stop-opacity="0"/>
    </radialGradient>
    <radialGradient id="milky" cx="0" cy="0" r="1" gradientUnits="userSpaceOnUse" gradientTransform="translate(970 410) rotate(104) scale(680 142)">
      <stop stop-color="#3f99ff" stop-opacity=".55"/>
      <stop offset=".42" stop-color="#115fc7" stop-opacity=".28"/>
      <stop offset="1" stop-color="#031024" stop-opacity="0"/>
    </radialGradient>
    <radialGradient id="sunGlow" cx="0" cy="0" r="1" gradientUnits="userSpaceOnUse" gradientTransform="translate(710 1563) scale(300 190)">
      <stop stop-color="#fff"/>
      <stop offset=".12" stop-color="#8be7ff" stop-opacity=".92"/>
      <stop offset=".38" stop-color="#148bff" stop-opacity=".5"/>
      <stop offset="1" stop-color="#00152d" stop-opacity="0"/>
    </radialGradient>
    <linearGradient id="earthBlue" x1="-90" y1="1800" x2="1480" y2="1780" gradientUnits="userSpaceOnUse">
      <stop stop-color="#0d78cc"/>
      <stop offset=".18" stop-color="#a7e7ff"/>
      <stop offset=".38" stop-color="#287fc4"/>
      <stop offset=".68" stop-color="#071d38"/>
      <stop offset="1" stop-color="#020811"/>
    </linearGradient>
    <radialGradient id="clouds" cx="0" cy="0" r="1" gradientUnits="userSpaceOnUse" gradientTransform="translate(250 1710) rotate(8) scale(620 165)">
      <stop stop-color="#fff" stop-opacity=".9"/>
      <stop offset=".38" stop-color="#dcefff" stop-opacity=".48"/>
      <stop offset="1" stop-color="#fff" stop-opacity="0"/>
    </radialGradient>
    <filter id="blur">
      <feGaussianBlur stdDeviation="18"/>
    </filter>
    <filter id="soft">
      <feGaussianBlur stdDeviation="8"/>
    </filter>
  </defs>

  <rect width="1440" height="2560" fill="#01040A"/>
  <rect width="1440" height="1540" fill="url(#deepBlue)"/>
  <rect width="1440" height="980" fill="url(#milky)"/>

  <g opacity=".86">
    <circle cx="116" cy="70" r="1.4" fill="#fff"/><circle cx="184" cy="123" r="1.6" fill="#fff"/><circle cx="301" cy="80" r="1.2" fill="#fff"/><circle cx="481" cy="142" r="1.4" fill="#fff"/><circle cx="631" cy="96" r="1.3" fill="#fff"/><circle cx="818" cy="74" r="1.5" fill="#fff"/><circle cx="1008" cy="136" r="1.3" fill="#fff"/><circle cx="1243" cy="86" r="1.5" fill="#fff"/>
    <circle cx="54" cy="285" r="1.6" fill="#fff"/><circle cx="226" cy="328" r="1.2" fill="#fff"/><circle cx="399" cy="292" r="1.3" fill="#fff"/><circle cx="569" cy="374" r="1.6" fill="#fff"/><circle cx="756" cy="320" r="1.4" fill="#fff"/><circle cx="926" cy="355" r="1.8" fill="#fff"/><circle cx="1194" cy="318" r="1.4" fill="#fff"/><circle cx="1368" cy="272" r="1.5" fill="#fff"/>
    <circle cx="142" cy="578" r="1.3" fill="#fff"/><circle cx="340" cy="534" r="1.7" fill="#fff"/><circle cx="519" cy="614" r="1.2" fill="#fff"/><circle cx="705" cy="567" r="1.5" fill="#fff"/><circle cx="892" cy="594" r="1.3" fill="#fff"/><circle cx="1088" cy="548" r="1.6" fill="#fff"/><circle cx="1308" cy="625" r="1.3" fill="#fff"/>
    <circle cx="80" cy="826" r="1.2" fill="#fff"/><circle cx="254" cy="774" r="1.5" fill="#fff"/><circle cx="438" cy="850" r="1.4" fill="#fff"/><circle cx="622" cy="808" r="1.3" fill="#fff"/><circle cx="798" cy="858" r="1.6" fill="#fff"/><circle cx="1022" cy="789" r="1.3" fill="#fff"/><circle cx="1264" cy="835" r="1.5" fill="#fff"/>
  </g>

  <g opacity=".32">
    <path d="M844 52c72 111 81 228 38 352-41 119-25 249 77 335 67 56 114 135 124 232" stroke="#3d8cff" stroke-width="2"/>
    <path d="M927 0c39 136 30 255-27 357-67 119-46 265 65 356 84 68 137 162 148 281" stroke="#7bc7ff" stroke-width="1"/>
    <path d="M1014 62c15 108-7 197-65 266-76 90-55 214 29 293 80 75 112 166 100 271" stroke="#236ed0" stroke-width="4" opacity=".35"/>
  </g>

  <g opacity=".95">
    <path d="M782 1350V922" stroke="#0b76ff" stroke-width="5" stroke-opacity=".72" filter="url(#soft)"/>
    <path d="M782 1486V765" stroke="#59ccff" stroke-width="2" stroke-opacity=".66"/>
    <circle cx="782" cy="1510" r="34" fill="#fff" filter="url(#blur)" opacity=".9"/>
    <circle cx="782" cy="1510" r="8" fill="#fff"/>
  </g>

  <g transform="translate(950 940) rotate(-27)">
    <path d="M55 55c38-22 85-9 106 28l25 43c20 36 8 80-27 101l-41 24c-35 20-80 8-101-28l-24-43c-21-37-8-84 28-105l34-20Z" fill="#071326" stroke="#90b8e8" stroke-width="4"/>
    <ellipse cx="76" cy="122" rx="65" ry="22" fill="#f7fbff" opacity=".86"/>
    <ellipse cx="76" cy="122" rx="46" ry="14" fill="#071326"/>
    <rect x="-88" y="117" width="122" height="92" fill="#061126" stroke="#7899c4" stroke-width="3"/>
    <rect x="153" y="22" width="154" height="108" fill="#061126" stroke="#7899c4" stroke-width="3"/>
    <path d="M34 131h-54M150 88h43" stroke="#d7efff" stroke-width="5"/>
    <path d="M-80 146h112M-78 174h109M177 49h118M172 80h119M170 111h118" stroke="#294b78" stroke-width="2"/>
    <circle cx="126" cy="73" r="16" fill="#0a82ff" opacity=".72"/>
  </g>

  <g transform="translate(850 805) rotate(-30) scale(.52)" opacity=".86">
    <path d="M42 48c28-18 67-8 83 20l16 28c17 30 6 67-24 84l-25 14c-31 17-68 6-85-24l-15-27c-18-31-7-70 24-87l26-8Z" fill="#071326" stroke="#8fb8e8" stroke-width="4"/>
    <rect x="-96" y="88" width="96" height="62" fill="#061126" stroke="#7497c5" stroke-width="3"/>
    <rect x="125" y="8" width="112" height="70" fill="#061126" stroke="#7497c5" stroke-width="3"/>
    <path d="M0 116h-54M112 49h43" stroke="#d7efff" stroke-width="5"/>
  </g>

  <g transform="translate(179 1378) rotate(-31) scale(.58)" opacity=".82">
    <path d="M42 48c28-18 67-8 83 20l16 28c17 30 6 67-24 84l-25 14c-31 17-68 6-85-24l-15-27c-18-31-7-70 24-87l26-8Z" fill="#071326" stroke="#8fb8e8" stroke-width="4"/>
    <rect x="-96" y="88" width="96" height="62" fill="#061126" stroke="#7497c5" stroke-width="3"/>
    <rect x="125" y="8" width="112" height="70" fill="#061126" stroke="#7497c5" stroke-width="3"/>
    <path d="M0 116h-54M112 49h43" stroke="#d7efff" stroke-width="5"/>
  </g>

  <g transform="translate(1212 382) rotate(22) scale(.45)" opacity=".8">
    <path d="M45 50c24-13 55-5 69 20l17 30c14 25 5 58-20 72l-28 16c-25 14-58 5-73-20l-17-30c-14-25-5-58 20-72l32-16Z" fill="#071326" stroke="#8fb8e8" stroke-width="4"/>
    <rect x="-80" y="76" width="86" height="48" fill="#061126" stroke="#7497c5" stroke-width="3"/>
    <rect x="122" y="25" width="95" height="55" fill="#061126" stroke="#7497c5" stroke-width="3"/>
    <path d="M4 99h-44M113 53h35" stroke="#d7efff" stroke-width="5"/>
  </g>

  <path d="M-170 1882C135 1544 1089 1448 1606 1664v896H-170V1882Z" fill="url(#earthBlue)"/>
  <path d="M-142 1850C185 1548 1090 1450 1590 1642" stroke="#a8f0ff" stroke-width="14" stroke-opacity=".92"/>
  <path d="M-146 1876C170 1571 1100 1476 1598 1672" stroke="#107dff" stroke-width="34" stroke-opacity=".35"/>
  <rect x="-130" y="1545" width="730" height="310" fill="url(#clouds)" transform="rotate(-9 -130 1545)" opacity=".92"/>
  <rect x="53" y="1748" width="420" height="100" fill="url(#clouds)" transform="rotate(-8 53 1748)" opacity=".58"/>

  <g opacity=".95" fill="#ffbf6c">
    <circle cx="712" cy="1788" r="2.5"/><circle cx="742" cy="1816" r="3"/><circle cx="785" cy="1772" r="2"/><circle cx="826" cy="1834" r="2.5"/><circle cx="872" cy="1805" r="2"/>
    <circle cx="921" cy="1886" r="3"/><circle cx="958" cy="1853" r="2"/><circle cx="1011" cy="1905" r="2.5"/><circle cx="1062" cy="1875" r="2"/><circle cx="1116" cy="1921" r="3"/>
    <circle cx="606" cy="1942" r="2.6"/><circle cx="642" cy="1981" r="2"/><circle cx="695" cy="1961" r="4"/><circle cx="748" cy="2012" r="2.5"/><circle cx="803" cy="1978" r="2"/>
    <circle cx="497" cy="2168" r="3"/><circle cx="538" cy="2212" r="2.5"/><circle cx="590" cy="2176" r="2"/><circle cx="655" cy="2245" r="2.2"/>
    <circle cx="216" cy="2308" r="7"/><circle cx="674" cy="2125" r="9"/><circle cx="820" cy="1995" r="6"/><circle cx="1034" cy="1938" r="5"/>
  </g>

  <g stroke="#ffbd67" stroke-opacity=".46" stroke-width="1.6">
    <path d="M712 1788l30 28 43-44 41 62 46-29 49 81 37-33 53 52 51-30 54 46"/>
    <path d="M606 1942l36 39 53-20 53 51 55-34 31 70"/>
    <path d="M497 2168l41 44 52-36 65 69 19-120"/>
    <path d="M216 2308l281-140 177-43 146-130 214-57"/>
  </g>

  <g opacity=".9">
    <path d="M216 2308l-10 34 10 34 10-34 34-34-34 10-10-34Z" fill="#fff"/>
    <path d="M674 2125l-12 42 12 42 12-42 42-42-42 12-12-42Z" fill="#fff"/>
    <path d="M820 1995l-9 30 9 30 9-30 30-30-30 9-9-30Z" fill="#fff"/>
    <path d="M1034 1938l-7 24 7 24 7-24 24-24-24 7-7-24Z" fill="#fff"/>
  </g>

  <rect y="0" width="1440" height="2560" fill="url(#sunGlow)" opacity=".75"/>
  <rect width="1440" height="2560" fill="black" opacity=".18"/>
</svg>
