<svg width="560" height="180" viewBox="0 0 560 180" fill="none" xmlns="http://www.w3.org/2000/svg">
  <defs>
    <linearGradient id="whiteMetal" x1="70" x2="360" y1="20" y2="110" gradientUnits="userSpaceOnUse">
      <stop stop-color="#fff"/>
      <stop offset=".48" stop-color="#d7dce4"/>
      <stop offset="1" stop-color="#fff"/>
    </linearGradient>
    <linearGradient id="blueMetal" x1="405" x2="505" y1="20" y2="92" gradientUnits="userSpaceOnUse">
      <stop stop-color="#46c9ff"/>
      <stop offset=".35" stop-color="#0d89ff"/>
      <stop offset="1" stop-color="#0054d6"/>
    </linearGradient>
  </defs>
  <path d="M85 34h177l-23 25H83c-16 0-25 21-14 33 5 6 12 8 20 8h102l-24 25H69c-26 0-45-20-45-45s22-46 61-46Z" fill="url(#whiteMetal)"/>
  <path d="M54 69h160l-24 25H44c-13 0-22-7-25-18 6-5 14-7 35-7Z" fill="url(#whiteMetal)"/>
  <path d="M244 34h31l80 77 53-77h35v92h-35V78l-39 48h-28l-66-63v63h-31V34Z" fill="url(#whiteMetal)"/>
  <path d="M398 34h122l-21 27h-46v65h-34V61h-42l21-27Z" fill="url(#blueMetal)"/>
  <path d="M60 155h18v5H66v4h11v5H60v-14Zm39 0h17c5 0 8 2 8 7 0 4-3 7-8 7H99v-14Zm6 5v4h10c2 0 3-1 3-2s-1-2-3-2h-10Zm41-5h6v14h-6v-14Zm29 0h22v5h-8v9h-6v-9h-8v-5Zm44 0h20v5h-14v2h13v4h-13v3h-6v-14Zm40 0h22v5h-8v9h-6v-9h-8v-5Zm47 0h6v14h-6v-14Zm29 0h20v5h-14v2h13v4h-13v3h-6v-14Zm39 0h6v9h14v5h-20v-14Zm40 0h22v5h-8v9h-6v-9h-8v-5Zm47 0h6v14h-6v-14Zm29 0h20v5h-14v2h13v4h-13v3h-6v-14Z" fill="#DDE5F0"/>
  <text x="280" y="142" text-anchor="middle" fill="#E5EAF1" font-family="Arial, sans-serif" font-size="17" letter-spacing="13">STRATEGIC MEDICAL TRAINING</text>
</svg>
