<svg width="1500" height="1168" viewBox="0 0 1500 1168" fill="none" xmlns="http://www.w3.org/2000/svg">
  <rect width="1500" height="1168" fill="#020711"/>
  <defs>
    <radialGradient id="nebula" cx="0" cy="0" r="1" gradientUnits="userSpaceOnUse" gradientTransform="translate(1120 315) rotate(105) scale(530 215)">
      <stop stop-color="#3688ff" stop-opacity=".55"/>
      <stop offset=".38" stop-color="#174ea4" stop-opacity=".28"/>
      <stop offset="1" stop-color="#020711" stop-opacity="0"/>
    </radialGradient>
    <radialGradient id="glow" cx="0" cy="0" r="1" gradientUnits="userSpaceOnUse" gradientTransform="translate(274 889) scale(265 145)">
      <stop stop-color="#72d9ff"/>
      <stop offset=".32" stop-color="#0f8cff" stop-opacity=".58"/>
      <stop offset="1" stop-color="#020711" stop-opacity="0"/>
    </radialGradient>
    <linearGradient id="earth" x1="0" x2="1500" y1="885" y2="885" gradientUnits="userSpaceOnUse">
      <stop stop-color="#011f3b"/>
      <stop offset=".18" stop-color="#0e5f9e"/>
      <stop offset=".52" stop-color="#14375b"/>
      <stop offset=".78" stop-color="#07548d"/>
      <stop offset="1" stop-color="#01192d"/>
    </linearGradient>
  </defs>
  <rect width="1500" height="720" fill="url(#nebula)"/>
  <rect width="650" height="300" y="720" fill="url(#glow)"/>
  <path d="M173 257c83-43 196-38 294 1 87 35 180 34 255-20 103-73 235-74 328 20 109 110 290 90 364 225" stroke="#266ec5" stroke-opacity=".18" stroke-width="2"/>
  <path d="M982 118C818 249 819 457 994 550c163 87 343 17 414-123" stroke="#477bd6" stroke-opacity=".22" stroke-width="5"/>
  <path d="M1038 189c-88 95-71 238 38 301 82 47 191 31 264-41" stroke="#6bd4ff" stroke-opacity=".32" stroke-width="2"/>
  <g opacity=".9">
    <circle cx="37" cy="208" r="2" fill="#fff"/><circle cx="202" cy="165" r="1.5" fill="#fff"/><circle cx="373" cy="87" r="1.5" fill="#fff"/><circle cx="534" cy="232" r="2" fill="#fff"/><circle cx="680" cy="154" r="1.3" fill="#fff"/><circle cx="864" cy="225" r="2" fill="#fff"/><circle cx="1042" cy="92" r="1.8" fill="#fff"/><circle cx="1218" cy="165" r="2" fill="#fff"/><circle cx="1390" cy="112" r="1.5" fill="#fff"/><circle cx="1336" cy="415" r="1.6" fill="#fff"/><circle cx="1116" cy="478" r="1.4" fill="#fff"/><circle cx="886" cy="390" r="1.3" fill="#fff"/><circle cx="606" cy="460" r="1.4" fill="#fff"/><circle cx="315" cy="410" r="1.6" fill="#fff"/><circle cx="119" cy="492" r="1.3" fill="#fff"/>
  </g>
  <path d="M-120 1033C188 776 1287 756 1620 1028V1168H-120V1033Z" fill="url(#earth)"/>
  <path d="M-80 1005C216 772 1280 746 1582 1004" stroke="#8beaff" stroke-width="6" stroke-opacity=".85"/>
  <path d="M-100 1017C221 795 1271 769 1598 1016" stroke="#147cf7" stroke-width="12" stroke-opacity=".45"/>
  <path d="M50 1074c90-20 174-26 262-19 99 8 157 40 255 39 90-1 152-36 242-37 102-1 181 38 279 35 105-4 194-48 306-29" stroke="#b7f3ff" stroke-opacity=".15" stroke-width="2"/>
  <g fill="#ffc370" opacity=".92">
    <circle cx="530" cy="1075" r="2"/><circle cx="552" cy="1082" r="1.8"/><circle cx="589" cy="1063" r="1.8"/><circle cx="629" cy="1087" r="2.2"/><circle cx="681" cy="1068" r="1.6"/><circle cx="918" cy="1065" r="1.8"/><circle cx="964" cy="1078" r="2"/><circle cx="1000" cy="1058" r="1.5"/><circle cx="1052" cy="1081" r="2.1"/><circle cx="1131" cy="1059" r="1.8"/>
  </g>
  <path d="M268 873l-24 45 48 7-46 7 22 48-45-31-36 39 12-53-53-16 55-11-2-55 32 44 37-24Z" fill="#e7fbff"/>
  <path d="M268 873l-24 45 48 7-46 7 22 48-45-31-36 39 12-53-53-16 55-11-2-55 32 44 37-24Z" fill="#59c9ff" opacity=".4" filter="url(#f)"/>
  <filter id="f" x="96" y="803" width="246" height="255" filterUnits="userSpaceOnUse" color-interpolation-filters="sRGB">
    <feGaussianBlur stdDeviation="24"/>
  </filter>
</svg>
