<svg width="96" height="96" viewBox="0 0 96 96" fill="none" xmlns="http://www.w3.org/2000/svg">
  <path d="M39 18c-13 0-22 9-22 21 0 3 1 6 3 9-5 3-8 8-8 14 0 10 8 17 18 17 5 0 9-2 12-5V18h-3ZM57 18c13 0 22 9 22 21 0 3-1 6-3 9 5 3 8 8 8 14 0 10-8 17-18 17-5 0-9-2-12-5V18h3Z" stroke="#58CFFF" stroke-width="2"/><path d="M29 32c7 0 12 5 12 12M67 32c-7 0-12 5-12 12M25 61c8 0 14 5 15 12M71 61c-8 0-14 5-15 12M42 47H28M54 47h14" stroke="#58CFFF" stroke-width="2" opacity=".75"/><circle cx="31" cy="32" r="3" fill="#1C75FF"/><circle cx="65" cy="32" r="3" fill="#1C75FF"/>
</svg>
